<mxfile host="app.diagrams.net" modified="2020-09-14T15:08:10.765Z" agent="5.0 (Windows NT 10.0; Win64; x64) AppleWebKit/537.36 (KHTML, like Gecko) Chrome/85.0.4183.102 Safari/537.36" etag="jnyuEhIm25uLo9Ann0rQ" version="13.6.10" type="github">
  <diagram id="eRnNM5ebxOStZiN5W5e9" name="Page-1">
    <mxGraphModel dx="782" dy="483" grid="1" gridSize="10" guides="1" tooltips="1" connect="1" arrows="1" fold="1" page="1" pageScale="1" pageWidth="850" pageHeight="1100" math="0" shadow="0">
      <root>
        <mxCell id="0" />
        <mxCell id="1" parent="0" />
        <mxCell id="I4sC3KngYr8GGiXYCn_U-29" value="" style="edgeStyle=orthogonalEdgeStyle;rounded=0;orthogonalLoop=1;jettySize=auto;html=1;" edge="1" parent="1" source="I4sC3KngYr8GGiXYCn_U-12" target="I4sC3KngYr8GGiXYCn_U-22">
          <mxGeometry relative="1" as="geometry" />
        </mxCell>
        <mxCell id="I4sC3KngYr8GGiXYCn_U-30" value="" style="edgeStyle=orthogonalEdgeStyle;rounded=0;orthogonalLoop=1;jettySize=auto;html=1;" edge="1" parent="1" source="I4sC3KngYr8GGiXYCn_U-12" target="I4sC3KngYr8GGiXYCn_U-22">
          <mxGeometry relative="1" as="geometry" />
        </mxCell>
        <mxCell id="I4sC3KngYr8GGiXYCn_U-35" value="" style="edgeStyle=orthogonalEdgeStyle;rounded=0;orthogonalLoop=1;jettySize=auto;html=1;" edge="1" parent="1" source="I4sC3KngYr8GGiXYCn_U-12" target="I4sC3KngYr8GGiXYCn_U-22">
          <mxGeometry relative="1" as="geometry" />
        </mxCell>
        <mxCell id="I4sC3KngYr8GGiXYCn_U-12" value="1" style="rounded=0;whiteSpace=wrap;html=1;fillColor=#d5e8d4;strokeColor=#82b366;" vertex="1" parent="1">
          <mxGeometry x="160" y="120" width="40" height="40" as="geometry" />
        </mxCell>
        <mxCell id="I4sC3KngYr8GGiXYCn_U-13" value="4" style="rounded=0;whiteSpace=wrap;html=1;fillColor=#d5e8d4;strokeColor=#82b366;" vertex="1" parent="1">
          <mxGeometry x="280" y="120" width="40" height="40" as="geometry" />
        </mxCell>
        <mxCell id="I4sC3KngYr8GGiXYCn_U-25" value="" style="edgeStyle=orthogonalEdgeStyle;rounded=0;orthogonalLoop=1;jettySize=auto;html=1;" edge="1" parent="1" source="I4sC3KngYr8GGiXYCn_U-14" target="I4sC3KngYr8GGiXYCn_U-21">
          <mxGeometry relative="1" as="geometry" />
        </mxCell>
        <mxCell id="I4sC3KngYr8GGiXYCn_U-14" value="3" style="rounded=0;whiteSpace=wrap;html=1;fillColor=#d5e8d4;strokeColor=#82b366;" vertex="1" parent="1">
          <mxGeometry x="240" y="120" width="40" height="40" as="geometry" />
        </mxCell>
        <mxCell id="I4sC3KngYr8GGiXYCn_U-26" value="" style="edgeStyle=orthogonalEdgeStyle;rounded=0;orthogonalLoop=1;jettySize=auto;html=1;" edge="1" parent="1" source="I4sC3KngYr8GGiXYCn_U-15" target="I4sC3KngYr8GGiXYCn_U-22">
          <mxGeometry relative="1" as="geometry" />
        </mxCell>
        <mxCell id="I4sC3KngYr8GGiXYCn_U-36" style="edgeStyle=orthogonalEdgeStyle;rounded=0;orthogonalLoop=1;jettySize=auto;html=1;entryX=0.5;entryY=1;entryDx=0;entryDy=0;exitX=0.5;exitY=0;exitDx=0;exitDy=0;" edge="1" parent="1" source="I4sC3KngYr8GGiXYCn_U-12" target="I4sC3KngYr8GGiXYCn_U-17">
          <mxGeometry relative="1" as="geometry" />
        </mxCell>
        <mxCell id="I4sC3KngYr8GGiXYCn_U-15" value="2" style="rounded=0;whiteSpace=wrap;html=1;fillColor=#d5e8d4;strokeColor=#82b366;" vertex="1" parent="1">
          <mxGeometry x="200" y="120" width="40" height="40" as="geometry" />
        </mxCell>
        <mxCell id="I4sC3KngYr8GGiXYCn_U-16" value="0" style="rounded=0;whiteSpace=wrap;html=1;fillColor=#d5e8d4;strokeColor=#82b366;" vertex="1" parent="1">
          <mxGeometry x="120" y="120" width="40" height="40" as="geometry" />
        </mxCell>
        <mxCell id="I4sC3KngYr8GGiXYCn_U-17" value="4" style="whiteSpace=wrap;html=1;rounded=0;strokeColor=#82b366;fillColor=#d5e8d4;" vertex="1" parent="1">
          <mxGeometry x="135" y="55" width="30" height="30" as="geometry" />
        </mxCell>
        <mxCell id="I4sC3KngYr8GGiXYCn_U-20" value="3" style="whiteSpace=wrap;html=1;rounded=0;strokeColor=#82b366;fillColor=#d5e8d4;" vertex="1" parent="1">
          <mxGeometry x="165" y="55" width="30" height="30" as="geometry" />
        </mxCell>
        <mxCell id="I4sC3KngYr8GGiXYCn_U-21" value="1" style="whiteSpace=wrap;html=1;rounded=0;strokeColor=#82b366;fillColor=#d5e8d4;" vertex="1" parent="1">
          <mxGeometry x="245" y="55" width="30" height="30" as="geometry" />
        </mxCell>
        <mxCell id="I4sC3KngYr8GGiXYCn_U-22" value="2" style="whiteSpace=wrap;html=1;rounded=0;strokeColor=#82b366;fillColor=#d5e8d4;" vertex="1" parent="1">
          <mxGeometry x="205" y="55" width="30" height="30" as="geometry" />
        </mxCell>
        <mxCell id="I4sC3KngYr8GGiXYCn_U-23" value="&#xa;&#xa;&lt;span style=&quot;color: rgb(27, 27, 27); font-family: metropolis, avenir, &amp;quot;avenir next&amp;quot;; font-size: 18px; font-style: normal; font-weight: 400; letter-spacing: normal; text-indent: 0px; text-transform: none; word-spacing: 0px; background-color: rgb(237, 236, 232); display: inline; float: none;&quot;&gt;Frequent&lt;/span&gt;&#xa;&#xa;" style="text;html=1;strokeColor=none;fillColor=none;align=center;verticalAlign=middle;whiteSpace=wrap;rounded=0;" vertex="1" parent="1">
          <mxGeometry x="40" y="130" width="60" height="20" as="geometry" />
        </mxCell>
        <mxCell id="I4sC3KngYr8GGiXYCn_U-24" value="Key" style="text;html=1;fillColor=#f5f5f5;align=center;verticalAlign=middle;whiteSpace=wrap;rounded=0;fontColor=#333333;fontStyle=1" vertex="1" parent="1">
          <mxGeometry x="80" y="60" width="40" height="20" as="geometry" />
        </mxCell>
      </root>
    </mxGraphModel>
  </diagram>
</mxfile>
